<svg id="Capa_1" enable-background="new 0 0 510.157 510.157" height="512" viewBox="0 0 510.157 510.157" width="512" xmlns="http://www.w3.org/2000/svg"><g><path d="m286.543 167.38c-19.54 0-35.438 15.897-35.438 35.437s15.897 35.437 35.438 35.437c19.54 0 35.436-15.897 35.436-35.437s-15.896-35.437-35.436-35.437zm0 55.874c-11.27 0-20.438-9.168-20.438-20.437s9.168-20.437 20.438-20.437c11.268 0 20.436 9.168 20.436 20.437s-9.168 20.437-20.436 20.437z"/><path d="m372.326 202.817c0-47.301-38.483-85.783-85.783-85.783-47.301 0-85.783 38.482-85.783 85.783s38.482 85.783 85.783 85.783 85.783-38.482 85.783-85.783zm-85.783 70.783c-39.03 0-70.783-31.753-70.783-70.783s31.753-70.783 70.783-70.783 70.783 31.753 70.783 70.783-31.753 70.783-70.783 70.783z"/><path d="m398.129 225.317c-4.143 0-7.5 3.358-7.5 7.5v82.109h-24.986c-15.06 0-27.312 12.252-27.312 27.312v3.796c0 15.06 12.252 27.312 27.312 27.312h24.986v42.243h-24.986c-15.06 0-27.312 12.252-27.312 27.312v3.796c0 15.06 12.252 27.312 27.312 27.312h24.986v18.212c0 1.619-1.317 2.936-2.936 2.936h-265.229c-1.619 0-2.936-1.317-2.936-2.936v-18.212h24.985c15.061 0 27.313-12.252 27.313-27.312v-3.796c0-15.06-12.252-27.312-27.313-27.312h-24.985v-131.153c0-4.142-3.357-7.5-7.5-7.5s-7.5 3.358-7.5 7.5v207.785c0 9.89 8.046 17.936 17.936 17.936h265.229c9.891 0 17.936-8.046 17.936-17.936v-259.404c0-4.142-3.357-7.5-7.5-7.5zm-253.615 205.272c6.789 0 12.313 5.523 12.313 12.312v3.796c0 6.789-5.523 12.312-12.313 12.312h-24.985v-28.42zm221.129-72.243c-6.789 0-12.312-5.523-12.312-12.312v-3.796c0-6.789 5.522-12.312 12.312-12.312h24.986v28.42zm0 100.663c-6.789 0-12.312-5.523-12.312-12.312v-3.796c0-6.789 5.522-12.312 12.312-12.312h24.986v28.42z"/><path d="m388.982 80.498h-102.315v-17.923c0-9.397-7.645-17.042-17.042-17.042h-7.047v-38.033c0-4.142-3.357-7.5-7.5-7.5s-7.5 3.358-7.5 7.5v38.033h-7.047c-9.397 0-17.042 7.645-17.042 17.042v17.922h-102.315c-9.179 0-16.646 7.467-16.646 16.646v157.293c0 4.142 3.357 7.5 7.5 7.5s7.5-3.358 7.5-7.5v-62.579h24.985c15.061 0 27.313-12.252 27.313-27.312v-3.796c0-15.06-12.252-27.312-27.313-27.312h-24.985v-36.294c0-.907.738-1.646 1.646-1.646h267.809c.908 0 1.647.738 1.647 1.646v105.674c0 4.142 3.357 7.5 7.5 7.5s7.5-3.358 7.5-7.5v-105.674c-.001-9.178-7.469-16.645-16.648-16.645zm-244.468 67.94c6.789 0 12.313 5.523 12.313 12.312v3.796c0 6.789-5.523 12.312-12.313 12.312h-24.985v-28.42zm93.975-67.94v-17.923c0-1.126.916-2.042 2.042-2.042h29.094c1.126 0 2.042.916 2.042 2.042v17.922h-33.178z"/><path d="m179.577 247.371h-23.47c-7.064 0-12.812 5.747-12.812 12.811v103.259c0 18.769 15.271 34.039 34.04 34.039h102.57c11.648 0 21.126-9.477 21.126-21.125v-47.054c0-7.255-5.902-13.158-13.157-13.158h-14.416c-39.858 0-74.712-25.532-86.732-63.534-.984-3.118-3.878-5.238-7.149-5.238zm93.882 83.773h12.573v45.211c0 3.377-2.748 6.125-6.126 6.125h-102.57c-10.499 0-19.04-8.541-19.04-19.039v-101.07h15.936c15.451 41.361 54.653 68.773 99.227 68.773z"/><path d="m196.324 437.299c-4.143 0-7.5 3.358-7.5 7.5s3.357 7.5 7.5 7.5h118.155c4.143 0 7.5-3.358 7.5-7.5s-3.357-7.5-7.5-7.5z"/></g></svg>