<?xml version="1.0" encoding="iso-8859-1"?>
<!-- Generator: Adobe Illustrator 19.0.0, SVG Export Plug-In . SVG Version: 6.00 Build 0)  -->
<svg version="1.1" id="Capa_1" xmlns="http://www.w3.org/2000/svg" xmlns:xlink="http://www.w3.org/1999/xlink" x="0px" y="0px"
	 viewBox="0 0 480 480" style="enable-background:new 0 0 480 480;" xml:space="preserve">
<g>
	<g>
		<g>
			<path d="M472,28h-64V12c0-4.418-3.582-8-8-8h-96c-4.418,0-8,3.582-8,8v16h-16v-8c0-4.418-3.582-8-8-8h-32c-4.418,0-8,3.582-8,8v8
				h-16V12c0-4.418-3.582-8-8-8h-64c-4.418,0-8,3.582-8,8v16H8c-4.418,0-8,3.582-8,8v432c0,4.418,3.582,8,8,8h464
				c4.418,0,8-3.582,8-8V36C480,31.582,476.418,28,472,28z M312,20h80v32h-80V20z M248,28h16v16h-16V28z M152,20h48v32h-48V20z
				 M464,460H16V44h120v16c0,4.418,3.582,8,8,8h64c4.418,0,8-3.582,8-8V44h16v8c0,4.418,3.582,8,8,8h32c4.418,0,8-3.582,8-8v-8h16
				v16c0,4.418,3.582,8,8,8h96c4.418,0,8-3.582,8-8V44h56V460z"/>
			<circle cx="48" cy="76" r="16"/>
			<circle cx="48" cy="428" r="16"/>
			<circle cx="432" cy="428" r="16"/>
			<circle cx="432" cy="76" r="16"/>
			<path d="M424,116H296v128h128V116z M408,228h-96v-96h96V228z"/>
			<path d="M400,140h-80v80h80V140z M384,204h-48v-48h48V204z"/>
			<rect x="232" y="124" width="32" height="16"/>
			<rect x="232" y="156" width="32" height="16"/>
			<rect x="232" y="188" width="32" height="16"/>
			<rect x="232" y="220" width="32" height="16"/>
			<rect x="184" y="124" width="32" height="16"/>
			<rect x="184" y="156" width="32" height="16"/>
			<rect x="184" y="188" width="32" height="16"/>
			<rect x="184" y="220" width="32" height="16"/>
			<path d="M88,292h64V116H88V292z M104,132h32v144h-8V148h-16v128h-8V132z"/>
			<path d="M120,340c-17.673,0-32,14.327-32,32c0,17.673,14.327,32,32,32s32-14.327,32-32C152,354.327,137.673,340,120,340z
				 M120,388c-8.837,0-16-7.163-16-16s7.163-16,16-16s16,7.163,16,16S128.837,388,120,388z"/>
			<rect x="272" y="356" width="160" height="16"/>
			<rect x="176" y="380" width="160" height="16"/>
			<rect x="176" y="356" width="80" height="16"/>
			<rect x="352" y="380" width="80" height="16"/>
			<path d="M208,316c13.255,0,24-10.745,24-24s-10.745-24-24-24s-24,10.745-24,24S194.745,316,208,316z M208,284
				c4.418,0,8,3.582,8,8s-3.582,8-8,8s-8-3.582-8-8S203.582,284,208,284z"/>
			<path d="M248,292c0,13.255,10.745,24,24,24s24-10.745,24-24s-10.745-24-24-24S248,278.745,248,292z M272,284c4.418,0,8,3.582,8,8
				s-3.582,8-8,8s-8-3.582-8-8S267.582,284,272,284z"/>
			<rect x="56" y="148" width="16" height="112"/>
			<rect x="320" y="276" width="16" height="16"/>
			<rect x="320" y="300" width="16" height="16"/>
			<rect x="344" y="276" width="16" height="16"/>
			<rect x="344" y="300" width="16" height="16"/>
			<rect x="368" y="276" width="16" height="16"/>
			<rect x="368" y="300" width="16" height="16"/>
			<rect x="392" y="276" width="16" height="16"/>
			<rect x="392" y="300" width="16" height="16"/>
			<rect x="56" y="116" width="16" height="16"/>
			<rect x="56" y="276" width="16" height="16"/>
		</g>
	</g>
</g>
<g>
</g>
<g>
</g>
<g>
</g>
<g>
</g>
<g>
</g>
<g>
</g>
<g>
</g>
<g>
</g>
<g>
</g>
<g>
</g>
<g>
</g>
<g>
</g>
<g>
</g>
<g>
</g>
<g>
</g>
</svg>
