<?xml version="1.0" standalone="no"?>
<!DOCTYPE svg PUBLIC "-//W3C//DTD SVG 20010904//EN"
 "http://www.w3.org/TR/2001/REC-SVG-20010904/DTD/svg10.dtd">
<svg version="1.0" xmlns="http://www.w3.org/2000/svg"
 width="512.000000pt" height="512.000000pt" viewBox="0 0 512.000000 512.000000"
 preserveAspectRatio="xMidYMid meet">

<g transform="translate(0.000000,512.000000) scale(0.100000,-0.100000)"
fill="#000000" stroke="none">
<path d="M324 4551 c-47 -12 -133 -62 -160 -94 -14 -17 -37 -53 -52 -81 l-27
-51 0 -1445 0 -1445 34 -63 c38 -70 69 -100 145 -140 l51 -27 867 -3 866 -3
-52 -157 -53 -157 -152 -5 c-200 -7 -191 3 -191 -202 0 -145 1 -150 25 -173
l24 -25 911 0 911 0 24 25 c24 23 25 28 25 173 0 205 9 195 -191 202 l-152 5
-53 157 -52 157 866 3 867 3 51 27 c76 40 107 70 145 140 l34 63 0 1445 0
1445 -34 63 c-38 70 -69 100 -145 140 l-51 27 -2225 2 c-1224 0 -2239 -2
-2256 -6z m4460 -165 c18 -8 46 -31 62 -52 l29 -37 3 -1229 2 -1228 -2320 0
-2320 0 0 1214 c0 836 3 1223 11 1243 14 37 47 73 84 89 46 20 4400 20 4449 0z
m94 -2815 c-3 -118 -12 -141 -72 -185 l-27 -21 -2218 0 -2218 0 -37 29 c-53
40 -66 78 -66 191 l0 95 2321 0 2321 0 -4 -109z m-1922 -533 l52 -158 -448 0
-449 0 50 148 c27 81 51 153 54 160 3 10 78 12 346 10 l342 -3 53 -157z m404
-358 l0 -40 -800 0 -800 0 0 40 0 40 800 0 800 0 0 -40z"/>
<path d="M425 4215 c-16 -15 -25 -36 -25 -55 0 -19 9 -40 25 -55 l24 -25 351
0 351 0 24 25 c16 15 25 36 25 55 0 19 -9 40 -25 55 l-24 25 -351 0 -351 0
-24 -25z"/>
<path d="M425 3975 c-16 -15 -25 -36 -25 -55 0 -19 9 -40 25 -55 23 -24 31
-25 135 -25 104 0 112 1 135 25 16 15 25 36 25 55 0 19 -9 40 -25 55 -23 24
-31 25 -135 25 -104 0 -112 -1 -135 -25z"/>
<path d="M4505 2375 c-16 -15 -25 -36 -25 -55 0 -19 9 -40 25 -55 21 -22 33
-25 95 -25 62 0 74 3 95 25 16 15 25 36 25 55 0 19 -9 40 -25 55 -21 22 -33
25 -95 25 -62 0 -74 -3 -95 -25z"/>
<path d="M4265 2135 c-16 -15 -25 -36 -25 -55 0 -19 9 -40 25 -55 24 -25 26
-25 215 -25 189 0 191 0 215 25 16 15 25 36 25 55 0 19 -9 40 -25 55 -24 25
-26 25 -215 25 -189 0 -191 0 -215 -25z"/>
<path d="M425 1575 c-16 -15 -25 -36 -25 -55 0 -19 9 -40 25 -55 l24 -25 271
0 271 0 24 25 c33 32 33 78 0 110 l-24 25 -271 0 -271 0 -24 -25z"/>
<path d="M1145 1575 c-16 -15 -25 -36 -25 -55 0 -19 9 -40 25 -55 21 -22 33
-25 95 -25 62 0 74 3 95 25 16 15 25 36 25 55 0 19 -9 40 -25 55 -21 22 -33
25 -95 25 -62 0 -74 -3 -95 -25z"/>
</g>
</svg>
